{
	"asset":{
		"generator":"Khronos glTF Blender I/O v5.0.21",
		"version":"2.0"
	},
	"extensionsUsed":[
		"KHR_materials_specular"
	],
	"scene":0,
	"scenes":[
		{
			"name":"Scene",
			"nodes":[
				0
			]
		}
	],
	"nodes":[
		{
			"mesh":0,
			"name":"Model"
		}
	],
	"materials":[
		{
			"doubleSided":true,
			"extensions":{
				"KHR_materials_specular":{
					"specularColorFactor":[
						0.4000000059604645,
						0.4000000059604645,
						0.4000000059604645
					]
				}
			},
			"name":"material0",
			"normalTexture":{
				"index":0
			},
			"pbrMetallicRoughness":{
				"baseColorTexture":{
					"index":1
				},
				"metallicFactor":0,
				"roughnessFactor":0.5527864098548889
			}
		}
	],
	"meshes":[
		{
			"name":"Model",
			"primitives":[
				{
					"attributes":{
						"POSITION":0,
						"NORMAL":1,
						"TEXCOORD_0":2
					},
					"indices":3,
					"material":0
				}
			]
		}
	],
	"textures":[
		{
			"sampler":0,
			"source":0
		},
		{
			"sampler":0,
			"source":1
		}
	],
	"images":[
		{
			"mimeType":"image/jpeg",
			"name":"BPR_normal.1001.jpg",
			"uri":"final%20BPR/testNORM.jpg"
		},
		{
			"mimeType":"image/jpeg",
			"name":"testDIF.jpg",
			"uri":"final%20BPR/testDIF.jpg"
		}
	],
	"accessors":[
		{
			"bufferView":0,
			"componentType":5126,
			"count":353654,
			"max":[
				14.611454010009766,
				8.500795364379883,
				3.750175952911377
			],
			"min":[
				-13.902012825012207,
				-0.1880354881286621,
				-4.402584075927734
			],
			"type":"VEC3"
		},
		{
			"bufferView":1,
			"componentType":5126,
			"count":353654,
			"type":"VEC3"
		},
		{
			"bufferView":2,
			"componentType":5126,
			"count":353654,
			"type":"VEC2"
		},
		{
			"bufferView":3,
			"componentType":5125,
			"count":2048325,
			"type":"SCALAR"
		}
	],
	"bufferViews":[
		{
			"buffer":0,
			"byteLength":4243848,
			"byteOffset":0,
			"target":34962
		},
		{
			"buffer":0,
			"byteLength":4243848,
			"byteOffset":4243848,
			"target":34962
		},
		{
			"buffer":0,
			"byteLength":2829232,
			"byteOffset":8487696,
			"target":34962
		},
		{
			"buffer":0,
			"byteLength":8193300,
			"byteOffset":11316928,
			"target":34963
		}
	],
	"samplers":[
		{
			"magFilter":9729,
			"minFilter":9987
		}
	],
	"buffers":[
		{
			"byteLength":19510228,
			"uri":"Untitled.bin"
		}
	]
}
